HIERARCHY
ROOT Hips
{
	OFFSET 0.00000 0.00000 0.00000
	CHANNELS 6 Xposition Yposition Zposition Zrotation Yrotation Xrotation 
	JOINT LHipJoint
	{
		OFFSET 0 0 0
		CHANNELS 3 Zrotation Yrotation Xrotation
		JOINT LeftHip
		{
			OFFSET 1.17584 -1.63585 1.00361
			CHANNELS 3 Zrotation Yrotation Xrotation
			JOINT LeftKnee
			{
				OFFSET 2.23889 -6.15131 0.00000
				CHANNELS 3 Zrotation Yrotation Xrotation
				JOINT LeftAnkle
				{
					OFFSET 2.65161 -7.28525 0.00000
					CHANNELS 3 Zrotation Yrotation Xrotation
					JOINT LeftToe
					{
						OFFSET 0.24898 -0.68407 1.57235
						CHANNELS 3 Zrotation Yrotation Xrotation
						End Site
						{
							OFFSET 0.00000 -0.00000 0.85838
						}
					}
				}
			}
		}
	}
	JOINT RHipJoint
	{
		OFFSET 0 0 0
		CHANNELS 3 Zrotation Yrotation Xrotation
		JOINT RightHip
		{
			OFFSET -1.15592 -1.63585 1.00361
			CHANNELS 3 Zrotation Yrotation Xrotation
			JOINT RightKnee
			{
				OFFSET -2.34071 -6.43104 0.00000
				CHANNELS 3 Zrotation Yrotation Xrotation
				JOINT RightAnkle
				{
					OFFSET -2.59113 -7.11908 0.00000
					CHANNELS 3 Zrotation Yrotation Xrotation
					JOINT RightToe
					{
						OFFSET -0.17867 -0.49089 1.70981
						CHANNELS 3 Zrotation Yrotation Xrotation
						End Site
						{
							OFFSET -0.00000 -0.00000 0.89861
						}
					}
				}
			}
		}
	}
	JOINT lowerback
	{
		OFFSET 0 0 0
		CHANNELS 3 Zrotation Yrotation Xrotation
		JOINT Chest
		{
			OFFSET -0.02255 1.90764 -0.16605
			CHANNELS 3 Zrotation Yrotation Xrotation
			JOINT Chest2
			{
				OFFSET -0.00365 1.92150 -0.04898
				CHANNELS 3 Zrotation Yrotation Xrotation
				JOINT lowerneck
				{
					OFFSET 0 0 0
					CHANNELS 3 Zrotation Yrotation Xrotation
					JOINT Neck
					{
						OFFSET 0.00372 1.59170 0.08694
						CHANNELS 3 Zrotation Yrotation Xrotation
						JOINT Head
						{
							OFFSET 0.12558 1.58643 -0.08078
							CHANNELS 3 Zrotation Yrotation Xrotation
							End Site
							{
								OFFSET 0.04211 1.60835 -0.03803
							}
						}
					}
				}
				JOINT LeftCollar
				{
					OFFSET 0 0 0
					CHANNELS 3 Zrotation Yrotation Xrotation
					JOINT LeftShoulder
					{
						OFFSET 3.69324 0.96316 0.19077
CHANNELS 3 Zrotation Xrotation Yrotation
						JOINT LeftElbow
						{
OFFSET 0 -4.877960 -0.000000
CHANNELS 3 Zrotation Xrotation Yrotation
							JOINT LeftWrist
							{
OFFSET 0 -3.231690 0.000000
CHANNELS 3 Zrotation Xrotation Yrotation
								JOINT lhand
								{
									OFFSET 0 0 0
CHANNELS 3 Zrotation Xrotation Yrotation
									JOINT LFingers
									{
OFFSET 0 -0.731320 0.000000
CHANNELS 3 Zrotation Xrotation Yrotation
										End Site
										{
OFFSET 0 -0.589610 0.000000
										}
									}
								}
								JOINT LThumb
								{
OFFSET 0 0.000000 0.000000
CHANNELS 3 Zrotation Xrotation Yrotation
									End Site
									{
OFFSET 0 -0.598610 0.598610
									}
								}
							}
						}
					}
				}
				JOINT RightCollar
				{
					OFFSET 0 0 0
					CHANNELS 3 Zrotation Yrotation Xrotation
					JOINT RightShoulder
					{
						OFFSET -3.66103 0.75145 0.08281
CHANNELS 3 Zrotation Xrotation Yrotation
						JOINT RightElbow
						{
OFFSET 0 -4.914300 0.000000
CHANNELS 3 Zrotation Xrotation Yrotation
							JOINT RightWrist
							{
OFFSET 0 -3.290930 0.000000
CHANNELS 3 Zrotation Xrotation Yrotation
								JOINT rhand
								{
									OFFSET 0 0 0
CHANNELS 3 Zrotation Xrotation Yrotation
									JOINT RFingers
									{
OFFSET 0 -0.545120 0.000000
CHANNELS 3 Zrotation Xrotation Yrotation
										End Site
										{
OFFSET 0 -0.439490 0.000000
										}
									}
								}
								JOINT RThumb
								{
OFFSET 0 0.000000 0.000000
CHANNELS 3 Zrotation Xrotation Yrotation
									End Site
									{
OFFSET 0 -0.446200 0.446200
									}
								}
							}
						}
					}
				}
			}
		}
	}
}
MOTION
Frames: 12
Frame Time: 0.008333333333333333
6.323675 13.576188 5.925281 -15.719380 -52.606891 31.801249 0.000000 0.000000 0.000000 -9.983369 -2.266058 -84.930813 16.924042 19.771396 80.973352 1.933188 -9.417619 -24.946663 0.599892 -4.958010 -13.788874 0.000000 0.000000 0.000000 -14.146870 1.373072 -20.785314 -2.528219 -9.888956 28.617922 1.053179 -21.137322 -20.198338 -2.005400 -8.877038 25.411738 -1.965904 4.151331 13.777912 0.522377 4.992086 7.027847 0.945647 2.332404 -0.518793 -2.302633 -8.836830 -3.240531 13.074936 -11.326422 -8.573926 4.644625 -5.966098 -1.226664 0.000000 0.000000 0.000000 43.849197 -34.068912 1.097164 13.126720 -21.472534 2.499517 58.467898 -24.178001 28.299003 0.000000 0.000000 0.000000 -7.125000 0.000000 0.000000 15.364335 -14.448988 19.316435 0.000000 0.000000 0.000000 -40.837466 -41.599814 1.236721 -11.631362 -19.249431 -1.979113 -33.483605 28.274199 30.653110 0.000000 0.000000 0.000000 7.125000 0.000000 0.000000 -2.898802 65.354473 1.427171
6.398495 13.614260 5.772431 -15.890564 -52.161214 32.556587 0.000000 0.000000 0.000000 -9.490413 -2.504524 -85.813696 16.551346 19.712335 79.870258 1.759193 -9.192526 -23.780591 0.586218 -4.902049 -13.629520 0.000000 0.000000 0.000000 -11.742249 -0.837069 -16.710356 -2.473131 -9.788963 28.295804 1.018796 -20.574026 -19.319728 -1.892329 -8.637914 24.669181 -1.677996 4.576794 13.875236 0.283304 5.576795 6.901493 0.441411 2.635627 -0.670792 -2.309091 -9.589097 -3.072623 13.925108 -12.291579 -8.845827 4.911201 -6.488439 -1.198912 0.000000 0.000000 0.000000 47.306179 -32.230575 4.098593 12.990042 -21.272644 2.449649 58.079851 -23.993435 27.980259 0.000000 0.000000 0.000000 -7.125000 0.000000 0.000000 15.265385 -13.786263 19.058277 0.000000 0.000000 0.000000 -43.762863 -42.694979 0.175499 -11.514509 -19.072528 -1.940753 -32.258841 27.089927 30.771317 0.000000 0.000000 0.000000 7.125000 0.000000 0.000000 -1.188356 65.126332 0.578314
6.476308 13.658331 5.609371 -16.145261 -51.691836 33.382456 0.000000 0.000000 0.000000 -8.881641 -2.787978 -86.619121 16.127296 19.636240 78.610569 1.599099 -8.650182 -22.647320 0.643761 -5.132030 -14.285726 0.000000 0.000000 0.000000 -9.146363 -3.297788 -13.027843 -2.425594 -9.701213 28.014591 1.041467 -20.152738 -17.924845 -1.612625 -8.004119 22.728677 -1.569276 4.956478 13.913943 0.157495 6.082436 6.837307 0.171288 2.891593 -0.743829 -2.660072 -10.226136 -2.858264 15.254665 -13.034839 -9.377555 4.887421 -6.926749 -1.065794 0.000000 0.000000 0.000000 50.410512 -30.381251 6.987838 12.911531 -21.157519 2.421265 57.533281 -24.027048 27.673949 0.000000 0.000000 0.000000 -7.125000 0.000000 0.000000 15.077694 -13.033409 18.664372 0.000000 0.000000 0.000000 -46.671448 -43.618779 -0.445053 -11.434218 -18.950761 -1.914544 -31.083270 25.695148 31.148589 0.000000 0.000000 0.000000 7.125000 0.000000 0.000000 0.558815 65.190383 -0.273230
6.558250 13.706665 5.439151 -16.437437 -51.276402 34.310062 0.000000 0.000000 0.000000 -8.221322 -3.109422 -87.417219 15.653663 19.540377 77.197738 1.444803 -7.876886 -21.500988 0.764431 -5.581069 -15.574183 0.000000 0.000000 0.000000 -6.492910 -5.908988 -9.845423 -2.399630 -9.653104 27.860620 1.117424 -19.956019 -16.050489 -1.088556 -6.604584 18.558527 -1.452021 5.370060 13.864086 -0.060456 6.632467 6.796159 -0.195565 3.170460 -0.729276 -2.855972 -10.812551 -2.743543 16.204101 -13.754736 -9.800136 5.187668 -7.335151 -1.053253 0.000000 0.000000 0.000000 53.392132 -28.792981 9.631352 12.897741 -21.137182 2.416295 56.874584 -24.059069 27.394333 0.000000 0.000000 0.000000 -7.125000 0.000000 0.000000 14.820691 -12.245953 18.173991 0.000000 0.000000 0.000000 -49.310529 -44.242406 -0.961615 -11.398909 -18.897092 -1.903098 -30.088942 24.252799 31.759735 0.000000 0.000000 0.000000 7.125000 0.000000 0.000000 2.203140 65.549003 -1.095512
6.645336 13.759870 5.263690 -16.714064 -50.935644 35.349669 0.000000 0.000000 0.000000 -7.500723 -3.521544 -88.231300 15.127155 19.420608 75.619165 1.287518 -6.951086 -20.279269 0.920481 -6.111848 -17.109450 0.000000 0.000000 0.000000 -3.843908 -8.502423 -7.196585 -2.402003 -9.657392 27.874366 1.171697 -19.676444 -13.923521 -0.502836 -4.526202 12.565054 -1.471156 5.743762 13.675936 -0.296025 7.118733 6.745832 -0.481972 3.415618 -0.657370 -3.118616 -11.271040 -2.674829 17.104407 -14.301215 -10.236381 5.485640 -7.654861 -1.044034 0.000000 0.000000 0.000000 56.066002 -27.239547 12.357909 12.947476 -21.210244 2.434255 56.294542 -23.864117 27.199050 0.000000 0.000000 0.000000 -7.125000 0.000000 0.000000 14.576665 -11.624032 17.735208 0.000000 0.000000 0.000000 -51.625919 -44.766430 -1.077745 -11.410665 -18.914929 -1.906876 -29.210289 22.703747 32.444086 0.000000 0.000000 0.000000 7.125000 0.000000 0.000000 3.771994 66.009535 -1.914065
6.736456 13.818471 5.084102 -17.064393 -50.706930 36.577591 0.000000 0.000000 0.000000 -6.595692 -4.003387 -89.040520 14.548561 19.271522 73.872587 1.131225 -5.879213 -19.007860 1.061150 -6.548706 -18.385139 0.000000 0.000000 0.000000 -1.141098 -10.863401 -5.085590 -2.427627 -9.705104 28.026859 1.120133 -18.822757 -11.671544 -0.151489 -2.465479 6.796204 -1.423213 6.207638 13.411413 -0.733363 7.731014 6.593132 -1.023995 3.729775 -0.610909 -3.035590 -11.730982 -2.456668 17.989370 -14.833830 -10.780697 5.744187 -7.994090 -1.114296 0.000000 0.000000 0.000000 58.718443 -25.944653 14.594176 13.092831 -21.423036 2.487070 55.884160 -23.539368 26.984470 0.000000 0.000000 0.000000 -7.125000 0.000000 0.000000 14.426852 -11.093693 17.437998 0.000000 0.000000 0.000000 -53.228566 -44.895756 -1.305985 -11.437458 -18.955747 -1.915610 -28.480852 21.361665 32.861389 0.000000 0.000000 0.000000 7.125000 0.000000 0.000000 5.005714 66.228173 -2.566267
6.833951 13.877488 4.902627 -17.477040 -50.572019 37.961903 0.000000 0.000000 0.000000 -5.464405 -4.579641 -89.834144 13.928499 19.091257 71.985139 0.981217 -4.620811 -17.742714 1.151425 -6.812940 -19.162487 0.000000 0.000000 0.000000 1.604324 -13.085536 -3.484076 -2.455027 -9.755726 28.189299 0.966577 -17.246053 -8.966005 -0.015400 -0.565534 1.554792 -1.424945 6.655339 13.090948 -1.227338 8.319261 6.345362 -1.588359 4.033009 -0.621131 -2.976744 -12.131727 -2.020291 18.913968 -15.266866 -11.378824 6.041281 -8.300217 -1.236203 0.000000 0.000000 0.000000 61.161066 -24.544816 16.298725 13.357431 -21.808549 2.584659 55.608769 -23.345928 26.706129 0.000000 0.000000 0.000000 -7.125000 0.000000 0.000000 14.367047 -10.571558 17.257839 0.000000 0.000000 0.000000 -54.210286 -44.927908 -1.343244 -11.462544 -18.993797 -1.923796 -27.982152 20.362183 33.060953 0.000000 0.000000 0.000000 7.125000 0.000000 0.000000 5.796645 66.287314 -2.980546
6.941532 13.934507 4.721438 -17.808886 -50.559574 39.390730 0.000000 0.000000 0.000000 -4.214222 -5.290151 -90.601565 13.268142 18.876033 69.955598 0.835479 -3.122975 -16.498979 1.216891 -6.997212 -19.707118 0.000000 0.000000 0.000000 4.244567 -15.321792 -2.392134 -2.458998 -9.762860 28.212287 0.744436 -15.064952 -5.783600 -0.072001 1.621055 -4.462293 -1.549278 7.031712 12.783522 -1.714928 8.801336 6.010476 -2.070494 4.281108 -0.740340 -3.168583 -12.477079 -1.543519 19.836149 -15.635233 -11.852193 6.374332 -8.562390 -1.309345 0.000000 0.000000 0.000000 63.263689 -22.934509 17.401225 13.720156 -22.333076 2.721032 55.431540 -23.555451 26.382382 0.000000 0.000000 0.000000 -7.125000 0.000000 0.000000 14.372150 -10.053841 17.160161 0.000000 0.000000 0.000000 -54.744996 -44.972628 -1.010693 -11.497867 -19.047302 -1.935256 -27.606871 19.555878 33.199763 0.000000 0.000000 0.000000 7.125000 0.000000 0.000000 6.384895 66.319326 -3.288682
7.060077 13.990866 4.542025 -18.043076 -50.753511 40.839515 0.000000 0.000000 0.000000 -2.882772 -6.084246 -91.295240 12.564281 18.618615 67.765929 0.689414 -1.332856 -15.288758 1.309584 -7.248881 -20.454851 0.000000 0.000000 0.000000 6.695949 -17.581687 -1.779132 -2.410876 -9.673991 27.927316 0.495898 -12.495419 -2.647525 -0.423625 4.152787 -11.509938 -1.670856 7.412023 12.567327 -2.340848 9.279736 5.596529 -2.710822 4.528385 -0.959526 -3.402879 -12.844114 -1.164078 20.801560 -16.050535 -12.178984 6.709493 -8.838659 -1.304546 0.000000 0.000000 0.000000 65.256971 -21.349187 17.749672 14.190504 -23.006230 2.902191 55.232443 -24.197332 25.960125 0.000000 0.000000 0.000000 -7.125000 0.000000 0.000000 14.394303 -9.396994 17.053633 0.000000 0.000000 0.000000 -54.734151 -44.932782 -0.639560 -11.520696 -19.081970 -1.942745 -27.132175 18.824841 33.277317 0.000000 0.000000 0.000000 7.125000 0.000000 0.000000 7.056650 66.259606 -3.626369
7.188579 14.047083 4.365921 -18.348656 -51.203470 42.430525 0.000000 0.000000 0.000000 -1.372106 -6.833550 -91.895854 11.825054 18.314166 65.431467 0.535776 0.702311 -14.104293 1.422725 -7.542426 -21.332937 0.000000 0.000000 0.000000 9.013104 -19.770530 -1.553644 -2.288510 -9.442263 27.189180 0.284096 -9.922509 -0.173594 -0.950852 6.189065 -17.340467 -1.919548 7.802332 12.265524 -2.951167 9.757539 5.231870 -3.251108 4.771946 -1.095185 -3.758955 -13.159804 -1.002453 21.698622 -16.418064 -12.430114 7.022905 -9.071646 -1.236132 0.000000 0.000000 0.000000 66.887764 -19.929601 18.130365 14.698243 -23.723633 3.103772 54.879451 -24.499441 25.377453 0.000000 0.000000 0.000000 -7.125000 0.000000 0.000000 14.379977 -8.440592 16.835442 0.000000 0.000000 0.000000 -54.508817 -45.015499 -0.191524 -11.550531 -19.127186 -1.952524 -26.381662 17.753369 33.309994 0.000000 0.000000 0.000000 7.125000 0.000000 0.000000 8.042907 66.074163 -4.101122
7.324203 14.100760 4.192876 -18.876850 -51.918542 44.246985 0.000000 0.000000 0.000000 0.391663 -7.430831 -92.385551 11.074157 17.969812 63.020551 0.374794 2.962187 -13.046656 1.534222 -7.819303 -22.166966 0.000000 0.000000 0.000000 11.243865 -21.737987 -1.561993 -2.104101 -9.078729 26.042570 0.135381 -7.695107 1.595871 -1.422606 7.535716 -21.315750 -2.411780 8.189252 11.752153 -3.413718 10.220205 4.988105 -3.467148 5.002153 -1.054865 -4.255219 -13.355328 -1.045711 22.412385 -16.638166 -12.686473 7.294667 -9.209688 -1.153837 0.000000 0.000000 0.000000 67.969024 -18.585651 18.922067 15.235061 -24.472189 3.322930 54.315579 -24.160096 24.658390 0.000000 0.000000 0.000000 -7.125000 0.000000 0.000000 14.288399 -7.184161 16.452773 0.000000 0.000000 0.000000 -54.269563 -45.381296 0.390436 -11.596671 -19.197089 -1.967689 -25.539271 16.445922 33.403105 0.000000 0.000000 0.000000 7.125000 0.000000 0.000000 9.182699 65.923912 -4.655192
7.466070 14.146857 4.021252 -19.726673 -52.881679 46.343274 0.000000 0.000000 0.000000 2.458507 -7.813101 -92.763279 10.342002 17.597672 60.625443 0.205152 5.418655 -12.247508 1.645859 -8.085714 -22.974570 0.000000 0.000000 0.000000 13.386043 -23.355413 -1.720447 -1.880911 -8.613433 24.593398 0.039178 -5.900949 2.904929 -1.866389 8.581651 -24.495454 -3.126522 8.551790 11.058485 -3.721947 10.649166 4.837271 -3.366458 5.209597 -0.890648 -4.828182 -13.415241 -1.304632 22.899649 -16.694306 -12.897408 7.502004 -9.239836 -1.056915 0.000000 0.000000 0.000000 68.493640 -17.213605 20.102480 15.802492 -25.252028 3.561293 53.603412 -23.319861 23.880403 0.000000 0.000000 0.000000 -7.125000 0.000000 0.000000 14.127054 -5.770727 15.946725 0.000000 0.000000 0.000000 -53.890587 -46.058705 1.209061 -11.662844 -19.297061 -1.989417 -24.894904 15.067278 33.669055 0.000000 0.000000 0.000000 7.125000 0.000000 0.000000 10.206415 66.003717 -5.197410
